<mxfile host="localhost" agent="Mozilla/5.0 (X11; Linux x86_64) AppleWebKit/537.36 (KHTML, like Gecko) Chrome/130.0.0.0 Safari/537.36" version="24.7.5">
  <diagram name="Page-1" id="WSxwcR_JqHZhntBFQmSR">
    <mxGraphModel dx="1703" dy="506" grid="1" gridSize="10" guides="1" tooltips="1" connect="1" arrows="1" fold="1" page="1" pageScale="1" pageWidth="850" pageHeight="1100" background="#141414" math="0" shadow="0">
      <root>
        <mxCell id="0" />
        <mxCell id="1" parent="0" />
        <mxCell id="bED11xK-Yd_vlyRf6Q76-1" value="&lt;span style=&quot;font-family: &amp;quot;Amazon Ember&amp;quot;, Helvetica, Arial, sans-serif; font-size: 12px;&quot;&gt;(South America, SÃ£o Paulo)&amp;nbsp;&lt;/span&gt;&lt;span style=&quot;font-family: &amp;quot;Amazon Ember&amp;quot;, Helvetica, Arial, sans-serif; font-size: 12px;&quot;&gt;sa-east-1&lt;/span&gt;" style="points=[[0,0],[0.25,0],[0.5,0],[0.75,0],[1,0],[1,0.25],[1,0.5],[1,0.75],[1,1],[0.75,1],[0.5,1],[0.25,1],[0,1],[0,0.75],[0,0.5],[0,0.25]];outlineConnect=0;gradientColor=none;html=1;whiteSpace=wrap;fontSize=12;fontStyle=0;container=0;pointerEvents=0;collapsible=0;recursiveResize=0;shape=mxgraph.aws4.group;grIcon=mxgraph.aws4.group_region;strokeColor=#00A4A6;fillColor=none;verticalAlign=top;align=left;spacingLeft=30;fontColor=#147EBA;dashed=1;labelBackgroundColor=none;" vertex="1" parent="1">
          <mxGeometry x="440" y="110" width="260" height="200" as="geometry" />
        </mxCell>
        <mxCell id="bED11xK-Yd_vlyRf6Q76-3" value="Destination Bucket" style="sketch=0;points=[[0,0,0],[0.25,0,0],[0.5,0,0],[0.75,0,0],[1,0,0],[0,1,0],[0.25,1,0],[0.5,1,0],[0.75,1,0],[1,1,0],[0,0.25,0],[0,0.5,0],[0,0.75,0],[1,0.25,0],[1,0.5,0],[1,0.75,0]];outlineConnect=0;fontColor=#84AD17;fillColor=#55700F;strokeColor=#ffffff;dashed=0;verticalLabelPosition=bottom;verticalAlign=top;align=center;html=1;fontSize=12;fontStyle=0;aspect=fixed;shape=mxgraph.aws4.resourceIcon;resIcon=mxgraph.aws4.s3;" vertex="1" parent="1">
          <mxGeometry x="531" y="171" width="78" height="78" as="geometry" />
        </mxCell>
        <mxCell id="bED11xK-Yd_vlyRf6Q76-4" value="&lt;span style=&quot;font-family: &amp;quot;Amazon Ember&amp;quot;, Helvetica, Arial, sans-serif;&quot;&gt;(US East, N. Virginia)&amp;nbsp;&lt;/span&gt;&lt;span style=&quot;font-family: &amp;quot;Amazon Ember&amp;quot;, Helvetica, Arial, sans-serif;&quot;&gt;us-east-1&lt;/span&gt;" style="points=[[0,0],[0.25,0],[0.5,0],[0.75,0],[1,0],[1,0.25],[1,0.5],[1,0.75],[1,1],[0.75,1],[0.5,1],[0.25,1],[0,1],[0,0.75],[0,0.5],[0,0.25]];outlineConnect=0;gradientColor=none;html=1;whiteSpace=wrap;fontSize=12;fontStyle=0;container=0;pointerEvents=0;collapsible=0;recursiveResize=0;shape=mxgraph.aws4.group;grIcon=mxgraph.aws4.group_region;strokeColor=#00A4A6;fillColor=none;verticalAlign=top;align=left;spacingLeft=30;fontColor=#147EBA;dashed=1;labelBackgroundColor=none;" vertex="1" parent="1">
          <mxGeometry x="80" y="110" width="260" height="200" as="geometry" />
        </mxCell>
        <mxCell id="bED11xK-Yd_vlyRf6Q76-5" value="Source Bucket" style="sketch=0;points=[[0,0,0],[0.25,0,0],[0.5,0,0],[0.75,0,0],[1,0,0],[0,1,0],[0.25,1,0],[0.5,1,0],[0.75,1,0],[1,1,0],[0,0.25,0],[0,0.5,0],[0,0.75,0],[1,0.25,0],[1,0.5,0],[1,0.75,0]];outlineConnect=0;fontColor=#84AD17;fillColor=#55700F;strokeColor=#ffffff;dashed=0;verticalLabelPosition=bottom;verticalAlign=top;align=center;html=1;fontSize=12;fontStyle=0;aspect=fixed;shape=mxgraph.aws4.resourceIcon;resIcon=mxgraph.aws4.s3;" vertex="1" parent="1">
          <mxGeometry x="171" y="171" width="78" height="78" as="geometry" />
        </mxCell>
        <mxCell id="bED11xK-Yd_vlyRf6Q76-6" value="Object Replication" style="edgeStyle=orthogonalEdgeStyle;rounded=0;orthogonalLoop=1;jettySize=auto;html=1;entryX=0;entryY=0.5;entryDx=0;entryDy=0;entryPerimeter=0;strokeColor=#A3A3A3;strokeWidth=2;fontColor=#A3A3A3;labelBackgroundColor=none;labelPosition=center;verticalLabelPosition=bottom;align=center;verticalAlign=top;fontStyle=1;fontSize=13;" edge="1" parent="1" source="bED11xK-Yd_vlyRf6Q76-5" target="bED11xK-Yd_vlyRf6Q76-3">
          <mxGeometry relative="1" as="geometry" />
        </mxCell>
        <mxCell id="bED11xK-Yd_vlyRf6Q76-7" value="" style="verticalLabelPosition=bottom;html=1;verticalAlign=top;align=center;strokeColor=none;fillColor=#55700F;shape=mxgraph.azure.file_2;pointerEvents=1;aspect=fixed;" vertex="1" parent="1">
          <mxGeometry x="380" y="171" width="28.5" height="30" as="geometry" />
        </mxCell>
        <mxCell id="bED11xK-Yd_vlyRf6Q76-8" value="" style="outlineConnect=0;dashed=0;verticalLabelPosition=bottom;verticalAlign=top;align=center;html=1;shape=mxgraph.aws3.users;fillColor=#A3A3A3;gradientColor=none;" vertex="1" parent="1">
          <mxGeometry x="-90" y="178.5" width="66" height="63" as="geometry" />
        </mxCell>
        <mxCell id="bED11xK-Yd_vlyRf6Q76-9" value="Object Creation" style="edgeStyle=orthogonalEdgeStyle;rounded=0;orthogonalLoop=1;jettySize=auto;html=1;entryX=0;entryY=0.5;entryDx=0;entryDy=0;entryPerimeter=0;strokeColor=#A3A3A3;strokeWidth=2;labelPosition=center;verticalLabelPosition=bottom;align=center;verticalAlign=top;labelBackgroundColor=none;fontColor=#A3A3A3;fontStyle=1;fontSize=13;" edge="1" parent="1" source="bED11xK-Yd_vlyRf6Q76-8" target="bED11xK-Yd_vlyRf6Q76-5">
          <mxGeometry relative="1" as="geometry" />
        </mxCell>
        <mxCell id="bED11xK-Yd_vlyRf6Q76-10" value="" style="verticalLabelPosition=bottom;html=1;verticalAlign=top;align=center;strokeColor=none;fillColor=#55700F;shape=mxgraph.azure.file_2;pointerEvents=1;aspect=fixed;" vertex="1" parent="1">
          <mxGeometry x="60" y="171" width="28.5" height="30" as="geometry" />
        </mxCell>
      </root>
    </mxGraphModel>
  </diagram>
</mxfile>
